<svg xmlns="http://www.w3.org/2000/svg" viewBox="0 0 102.09 346.16"><title>Asset 1</title><g id="Layer_2" data-name="Layer 2"><g id="Layer_1-2" data-name="Layer 1"><path d="M75.49,76.83c-2,1.26-3.31,1.42-7.28,1.1-3.14-.26-7.91-.8-15.89-1.34l-3.11-.2-2-.12c-8.84-.52-15-.84-19.43-.57-.26,0-.51,0-.75,0a23.77,23.77,0,0,0-2.65.32,13.89,13.89,0,0,0-2.81.77,24.25,24.25,0,0,1-4.88,1.55,17.42,17.42,0,0,1-4.67.26c-1.65-.13-6.14-.45-8.83-3.42C-.81,70.75.73,63.76,2.52,58L8.14,39.87C10.58,32,12.29,28.2,13.47,26.51,18,20,21.64,21,28.49,13.8,35,7,34,3.69,37.4,1.57a8.45,8.45,0,0,1,.8-.44c3.46-1.67,8.24-1.41,13,.3a31.7,31.7,0,0,1,10.38,6.2,25.66,25.66,0,0,1,5.87,7.53c4.66,9.33-1,15.12,5,25.24C76.6,47.45,80.6,46.81,82.8,53,85.64,61,82.55,72.28,75.49,76.83Z" style="fill:#0d1028"/><path d="M50.17,80c-1.47,2-4.81,6.43-9.58,6.57-4.09.12-7.28-3-9.2-4.88a23.4,23.4,0,0,1-4.89-7,42.73,42.73,0,0,1-2.25-5.94c-.37-1.23-6.85-23.32,1.17-28.61,1.75-1.15,2.63-.48,6-2.33,4.33-2.4,3.89-4.11,7.7-6.63,4.14-2.74,7-2.29,9.76-4a8.62,8.62,0,0,0,1.89-1.63c2.18-2.44,1.9-4.26,2.6-4.27C56.66,21.15,63.39,62.3,50.17,80Z" style="fill:#e9eeff"/><path d="M42.6,65.22a3.61,3.61,0,0,1-3.3-1.8,7.55,7.55,0,0,1-.95-3.8,17.33,17.33,0,0,1,1.9-8.39,16.82,16.82,0,0,1,2.38-3.53l.22-.17a26.38,26.38,0,0,1,1.64,3.88,27,27,0,0,1,1.39,7.87C46,61.77,45.08,64.93,42.6,65.22Z" style="fill:#b7bef9"/><path d="M24.57,120.61a22.13,22.13,0,0,1-2.69,5.74c-4.29,7-9.52,17.52-16.21,32.39a8.3,8.3,0,0,1,9.26,4.43,8.29,8.29,0,0,1-2.66,9.91A8.29,8.29,0,0,1,2,172.28a6.58,6.58,0,0,1-1.89-4.37c-.29-2.37-.16-6,.7-11.78a108.79,108.79,0,0,1,9.05-31C13.26,118,16.81,110.61,20.52,111c2,.21,3.41,2.53,4,4.09A9,9,0,0,1,24.57,120.61Z" style="fill:#e9eeff"/><path d="M101.85,40.8l-.6,6.36q-1.52,16.11-3,32.22c-.64,6.86-1.44,14.13-5.7,19.53-4.37,5.55-10.6,7.1-22.78,10.4a27.36,27.36,0,0,1-2.94.67,9.21,9.21,0,0,1-4.65-.22,5.35,5.35,0,0,1-1.08-.52,2.46,2.46,0,0,1-.34-.22,6.83,6.83,0,0,1-2.71-5.2C58.32,97.53,77.78,93.21,90.24,91a135,135,0,0,0-.39-48.52c-.58-3-1.26-6.16-.6-9.17a2.5,2.5,0,0,1,.07-.26,8.33,8.33,0,0,1,.58-1.58c1.08-2.25,3.14-4.05,5.59-4,2.79,0,5.11,2.4,6,5S102.11,38,101.85,40.8Z" style="fill:#e9eeff"/><path d="M33,208.59l-.33,22.65q-.57,39.06-1.13,78.13c0,1.21,0,2.43-.05,3.64-.06,3.57-.11,7.15-.16,10.72-.1,7.29-1.46,16.41-8.17,18.48s-13.27-6-12.79-13.4c.38-5.81,3.48-10.88,7-15.51.95-1.24,1.94-2.45,2.92-3.64l1.34-4.23q1.23-44,2.45-88Z" style="fill:#e9eeff"/><path d="M19.75,311.9c-1.25-.68-7.49,6.41-10.21,15.61-1.82,6.14-1,9.76-.75,10.92.44,1.71,1.43,5.59,4.54,7.12,4.63,2.27,10.43-2.41,11.9-3.6,5.44-4.38,7.16-10.57,7.81-13.06,2.21-8.35.39-16.45-1-16.5s-1.35,9.27-6.73,12.16c-2,1.08-5,1.34-6.41-.19C16,321.26,21,312.55,19.75,311.9Z" style="fill:#534741"/><path d="M61.21,342c-6.71-2.08-8.07-11.2-8.17-18.48,0-3.58-.1-7.15-.16-10.73q-.75-52.2-1.51-104.41l8.88,8.84L61,242.87q.86,31.15,1.73,62.3L64,309.41l1,1.23c.64.79,1.29,1.59,1.91,2.41,3.56,4.63,6.66,9.69,7,15.51C74.48,335.94,68,344.07,61.21,342Z" style="fill:#e9eeff"/><path d="M64.65,311.65c1.25-.68,7.48,6.41,10.21,15.6,1.82,6.15,1,9.77.75,10.92-.44,1.71-1.43,5.6-4.54,7.13-4.63,2.27-10.43-2.41-11.9-3.6-5.44-4.38-7.16-10.57-7.82-13.07-2.2-8.34-.38-16.44,1-16.49s1.35,9.27,6.73,12.15c2,1.08,5,1.35,6.4-.18C68.39,321,63.45,312.3,64.65,311.65Z" style="fill:#534741"/><path d="M25.11,120.61c-.71-4.13-1.91-7.35-3.94-7.74-1.17-.23-2.52.5-4,1.92-.29,5.45-2.51,10.78-5.12,15.74-.87,5.68-3.61,10.85-6.64,15.83.32,3.64-.76,7-2.24,10.33a5.12,5.12,0,0,0,1.7,2.93c2,1.47,5.52.77,7,3.5,1.28,2.36.42,6.15-1.5,7-2.72,1.21-5.87-4.26-8.5-3.25a2.87,2.87,0,0,0-1.24,1,6.58,6.58,0,0,0,1.89,4.37,8.29,8.29,0,0,0,10.24.8,8.29,8.29,0,0,0,2.66-9.91,8.3,8.3,0,0,0-9.26-4.43c6.69-14.87,11.92-25.38,16.21-32.39A22.13,22.13,0,0,0,25.11,120.61Z" style="fill:#dce3f7"/><path d="M101.85,40.8l-.6,6.36q-1.52,16.11-3,32.22c-.64,6.86-1.44,14.13-5.7,19.53-4.37,5.55-10.6,7.1-22.78,10.4a27.36,27.36,0,0,1-2.94.67,8.57,8.57,0,0,1,.61-6.61c3.67-6,15.23-.33,22.5-7,4.09-3.75,4.47-9.27,5-17,1.06-15.41-5.33-25.14,0-31a14,14,0,0,0,3.75-5.25,10.05,10.05,0,0,0-.25-8c-.26-.5-1.93-3.72-5-4.25a5.52,5.52,0,0,0-3.52.63c1.08-2.25,3.14-4.05,5.59-4,2.79,0,5.11,2.4,6,5S102.11,38,101.85,40.8Z" style="fill:#dce3f7"/><path d="M32.7,231.24q-.57,39.06-1.13,78.13c-4,7.12-8.23,12.36-9.6,11.75-2.08-.92,4.31-14.35,7.33-33.33,5.56-35-4.77-61.05-1.33-62C29,225.5,30.79,227.75,32.7,231.24Z" style="fill:#dce3f7"/><path d="M65.05,310.64c0,.34,0,.66-.07,1-.06.79-.12,1.52-.19,2.2-.7,6.88-1.85,8.24-2.74,8.38-2.43.38-5.5-7.85-5.67-8.33-4.8-13.09-.43-25.21,1.67-33.33,7.38-28.64-2.24-51.13-.67-51.34.75-.1,2.16,5.14,3.59,13.67q.86,31.15,1.73,62.3L64,309.41Z" style="fill:#dce3f7"/><path d="M74.86,232.57c-1.74,3.55-5.43,5.6-8.87,6.77a32.85,32.85,0,0,1-7.36,1.56c-6,.6-9.45-1.13-13.44-2.78a28.79,28.79,0,0,0-13.27-2.52c-6.73.25-10.28,2.2-13.24-.28s-2.71-7.64-2.4-12.08c.2-2.89.39-5.58.58-8.1.34-4.38.7-8.22,1.2-11.62h0c1.05-7.18,2.7-12.4,6-16.56a21.33,21.33,0,0,1,3.1-3.22c8-6.79,21.76-11,29.91-5.62a8.82,8.82,0,0,1,3.6,4.48,82.79,82.79,0,0,1,2.27,9,131.07,131.07,0,0,0,4.35,14.67c3.5,9.74,6.59,15.25,7.83,19.36C75.91,228.29,76,230.35,74.86,232.57Z" style="fill:#f79a54"/><path d="M45.19,238.12a28.79,28.79,0,0,0-13.27-2.52c-6.73.25-10.28,2.2-13.24-.28s-2.71-7.64-2.4-12.08c.2-2.89.39-5.58.58-8.1.34-4.38.7-8.22,1.2-11.62h0c1.05-7.18,2.7-12.4,6-16.56,8.39-1.93,18.73,1.42,21.33,7.17s-4.46,9.35-5.25,21.25S45.67,232.92,45.19,238.12Z" style="fill:#fca863"/><path d="M57.34,197.57c-7.21,2.92-15.28,2.57-23.05,2.19-4.41-.22-8.91-.46-13-2.09s-7.77-4.95-8.6-9.23c-.95-4.87,1.74-9.14,5.05-13.15,1.68-2,3.53-4,5.14-6A42.42,42.42,0,0,0,32,136.7c-.89-6.07-2.6-6.85-4.21-17.48-1.54-10.21-.6-14.37,1.34-17.58a15.63,15.63,0,0,1,7-6.3,16.76,16.76,0,0,1,12.09-.22,17.61,17.61,0,0,1,6.58,4c5.3,5.24,5.35,12.82,4.63,19.68s-2.93,13.52-4.15,20.33-1.39,14.13,1.74,20.31c3.65,7.2,11.51,12.42,12.57,20.41C70.64,187.51,64.55,194.66,57.34,197.57Z" style="fill:#f9b169"/><path d="M53.92,100a11.75,11.75,0,0,1,14.53-3.75c3.68,1.86,6.22,6.14,5.35,10.17-1,4.94-6.62,7.8-11.68,7.69-3.92-.08-8.08-1.78-9.93-5.24s-.26-8.66,3.56-9.57" style="fill:#f79a54"/><path d="M19.45,123.11c-3.21.78-9.11,1-11.48-2.55a5.67,5.67,0,0,1-.64-1.34c-1-3,.56-6.71,1.26-8.09h0c.13-.25.23-.44.28-.52,3.22-5.69,10.67-9,16.63-9.56A18.82,18.82,0,0,1,28,101c2.57.08,4.63.78,5.56,2.08C36.58,107.34,29.44,120.73,19.45,123.11Z" style="fill:#f9b169"/><path d="M42.59,99.57c-1.52,1.18-4.26,2.06-5.89.89a3.07,3.07,0,0,1-.79-.85A9.64,9.64,0,0,1,35,94.29c.26-6.59,3.68-15.68,6-15.58,1,0,2.2,1.85,3.11,4.41A24.06,24.06,0,0,1,44.93,86C46.05,90.93,46,97,42.59,99.57Z" style="fill:#e9eeff"/><path d="M50.17,80c-1.47,2-4.81,6.43-9.58,6.57-4.09.12-7.28-3-9.2-4.88a23.4,23.4,0,0,1-4.89-7A22.44,22.44,0,0,0,28.25,76c4.3,3.12,11.76,6.3,16.5,3.33,2.11-1.32,3.16-3.52,4.67-11.17,3.66-18.49,6.5-32.89-.33-40.83l-.24-.28a8.62,8.62,0,0,0,1.89-1.63c2.18-2.44,1.9-4.26,2.6-4.27C56.66,21.15,63.39,62.3,50.17,80Z" style="fill:#dce3f7"/><path d="M42.59,99.57c-1.52,1.18-4.26,2.06-5.89.89a3.07,3.07,0,0,1-.79-.85A9.64,9.64,0,0,1,35,94.29c1.68,1.43,3.7,3.3,5,2.65,2.77-1.36-1.49-11.65,1.76-13.63a3.08,3.08,0,0,1,2.33-.19A24.06,24.06,0,0,1,44.93,86C46.05,90.93,46,97,42.59,99.57Z" style="fill:#dce3f7"/><path d="M42.6,65.22a3.61,3.61,0,0,1-3.3-1.8,7.55,7.55,0,0,1-.95-3.8,17.33,17.33,0,0,1,1.9-8.39A18.38,18.38,0,0,0,39.5,59c.24,1.57.9,4.23,1.76,4.26,1.47,0,2.09-7.83,3.23-11.84a27,27,0,0,1,1.39,7.87C46,61.77,45.08,64.93,42.6,65.22Z" style="fill:#9ca8f2"/><path d="M56,15c-1.17,1.15-2.54.57-5,1.33-4.47,1.39-6.11,5.24-8.66,8.33-4.68,5.66-8.59,4.15-16.34,9-3.67,2.3-13.15,8.24-15,17-2.14,10.13,7.74,15.54,8.71,26.87a13.89,13.89,0,0,0-2.81.77l-.12,0a17.42,17.42,0,0,1-4.67.26c-1.65-.13-6.14-.45-8.83-3.42C-.81,70.75.73,63.76,2.52,58L8.14,39.87C10.58,32,12.29,28.2,13.47,26.51,18,20,21.64,21,28.49,13.8,35,7,34,3.69,37.4,1.57,43.38,1,51.11,4,56.83,9.13,57.29,11.5,57.21,13.8,56,15Z" style="fill:#1b2142"/><path d="M73,76.43c-2,1.26-3.31,1.42-7.28,1.1,1.33-4.89,13.35-12.86,11.67-21.31-1-5-5.59-4.41-9.75-11.5C63.08,36.92,66.39,32.38,63.9,23,60.47,10,50.45,4.39,48.73,1a31.7,31.7,0,0,1,10.38,6.2A25.66,25.66,0,0,1,65,14.76c4.66,9.33-1,15.12,5,25.24,4.15,7,8.15,6.41,10.35,12.57C83.16,60.56,80.07,71.88,73,76.43Z" style="fill:#1b2142"/><path d="M19.45,123.11c-3.21.78-9.11,1-11.48-2.55a5.67,5.67,0,0,1-.64-1.34,13.81,13.81,0,0,0,3.41,1.27c.45.1,8.9,1.93,13.79-3.34,4-4.26,3.09-10.49,3-10.87A13.38,13.38,0,0,0,25.5,101,18.82,18.82,0,0,1,28,101c2.57.08,4.63.78,5.56,2.08C36.58,107.34,29.44,120.73,19.45,123.11Z" style="fill:#f79a54"/><path d="M57.34,197.57c-7.21,2.92-15.28,2.57-23.05,2.19-4.41-.22-8.91-.46-13-2.09s-7.77-4.95-8.6-9.23c-.95-4.87,1.74-9.14,5.05-13.15.44,5.24,1.86,10,5.65,12.33,8.88,5.46,29-3.49,31.75-15.25,2.92-12.35-14.72-21.6-11.25-39.25.92-4.65,2.14-4,4-10.5,3.41-11.91,1.5-21.73.38-27.5a17.61,17.61,0,0,1,6.58,4c5.3,5.24,5.35,12.82,4.63,19.68s-2.93,13.52-4.15,20.33-1.39,14.13,1.74,20.31c3.65,7.2,11.51,12.42,12.57,20.41C70.64,187.51,64.55,194.66,57.34,197.57Z" style="fill:#f79a54"/></g></g></svg>