<svg xmlns="http://www.w3.org/2000/svg" xmlns:xlink="http://www.w3.org/1999/xlink" viewBox="0 0 101 30"><defs><style>.a{fill:#c1c1c1;}.b{clip-path:url(#a);}.c{fill:#f4515e;}.d{fill:#c1272d;}.e{fill:#b2242e;}.f{fill:#707070;font-size:14px;font-family:Montserrat-Bold, Montserrat;font-weight:700;}</style><clipPath id="a"><path class="a" d="M15,0A15,15,0,1,1,0,15,15,15,0,0,1,15,0Z" transform="translate(12 23)"/></clipPath></defs><g transform="translate(-18 -10)"><g transform="translate(6 -13)"><g class="b"><g transform="translate(12.004 25.226)"><path class="c" d="M14.259.6A6.789,6.789,0,0,1,18.075.09a5.516,5.516,0,0,1,2.542,1.148A8.442,8.442,0,0,1,23.27,6.553c.9,5.986-2.427,12.146-7.27,15.176a9.552,9.552,0,0,1-4.833,1.638,5.369,5.369,0,0,1-4.491-2.2,7.044,7.044,0,0,1-.891-5.236c.277-1.52.593-1.952,1.882-5.072C9.162,7.252,9.612,5.59,11.355,3.112A6.516,6.516,0,0,1,14.259.6Z"/><path class="d" d="M15.091,15.317c-2.509-3.405-.324-5.97-2.334-9.185-1.566-2.5-5.164-4.622-8.079-3.6C1.99,3.474.514,6.42.126,9.244A14.637,14.637,0,0,0,10.654,25.265c.6.169,5.274.924,6.99-1.664,1.2-1.81.311-4.314.167-4.712C17.164,17.1,16.178,16.784,15.091,15.317Z"/><path class="e" d="M9.468,16.658c.585-2.612,1.89-8.459,7.19-11.3,3.125-1.677,8.749-2.9,11.64,0C31.636,8.7,29.541,15.7,26.416,19.567,21.77,25.319,12.405,27.158,9.64,24.02,8.189,22.374,8.8,19.647,9.468,16.658Z"/></g></g></g><text class="f" transform="translate(54 30)"><tspan x="0" y="0">GURUKU</tspan></text></g></svg>